<?xml version="1.0" encoding="UTF-8" standalone="no"?>
<!DOCTYPE svg PUBLIC "-//W3C//DTD SVG 1.1//EN"
 "http://www.w3.org/Graphics/SVG/1.1/DTD/svg11.dtd">
<!-- Generated by graphviz version 14.0.4 (20251115.1723)
 -->
<!-- Title: round_0 Pages: 1 -->
<svg width="424pt" height="216pt"
 viewBox="0.00 0.00 424.00 216.00" xmlns="http://www.w3.org/2000/svg" xmlns:xlink="http://www.w3.org/1999/xlink">
<g id="graph0" class="graph" transform="scale(1 1) rotate(0) translate(4 212.19)">
<title>round_0</title>
<polygon fill="white" stroke="none" points="-4,4 -4,-212.19 420.25,-212.19 420.25,4 -4,4"/>
<!-- 2 -->
<g id="node1" class="node">
<title>2</title>
<ellipse fill="none" stroke="black" cx="27" cy="-42.02" rx="27" ry="18"/>
<text xml:space="preserve" text-anchor="middle" x="27" y="-36.97" font-family="Times,serif" font-size="14.00">2</text>
</g>
<!-- 1 -->
<g id="node2" class="node">
<title>1</title>
<ellipse fill="none" stroke="black" cx="147.75" cy="-107.02" rx="27" ry="18"/>
<text xml:space="preserve" text-anchor="middle" x="147.75" y="-101.97" font-family="Times,serif" font-size="14.00">1</text>
</g>
<!-- 2&#45;&gt;1 -->
<g id="edge1" class="edge">
<title>2&#45;&gt;1</title>
<path fill="none" stroke="black" d="M48.68,-53.34C67.42,-63.59 95.24,-78.83 116.48,-90.45"/>
<polygon fill="black" stroke="black" points="114.52,-93.37 124.97,-95.1 117.88,-87.23 114.52,-93.37"/>
<text xml:space="preserve" text-anchor="middle" x="87.38" y="-85.45" font-family="Times,serif" font-size="14.00">0.583</text>
</g>
<!-- 4 -->
<g id="node4" class="node">
<title>4</title>
<ellipse fill="none" stroke="black" cx="268.5" cy="-42.02" rx="27" ry="18"/>
<text xml:space="preserve" text-anchor="middle" x="268.5" y="-36.97" font-family="Times,serif" font-size="14.00">4</text>
</g>
<!-- 2&#45;&gt;4 -->
<g id="edge7" class="edge">
<title>2&#45;&gt;4</title>
<path fill="none" stroke="black" d="M54.09,-42.02C96.54,-42.02 180.73,-42.02 229.72,-42.02"/>
<polygon fill="black" stroke="black" points="229.57,-45.52 239.57,-42.02 229.57,-38.52 229.57,-45.52"/>
<text xml:space="preserve" text-anchor="middle" x="147.75" y="-45.22" font-family="Times,serif" font-size="14.00">0.344</text>
</g>
<!-- 3 -->
<g id="node3" class="node">
<title>3</title>
<ellipse fill="none" stroke="black" cx="389.25" cy="-160.02" rx="27" ry="18"/>
<text xml:space="preserve" text-anchor="middle" x="389.25" y="-154.97" font-family="Times,serif" font-size="14.00">3</text>
</g>
<!-- 1&#45;&gt;3 -->
<g id="edge4" class="edge">
<title>1&#45;&gt;3</title>
<path fill="none" stroke="black" d="M171.36,-116.03C178.16,-118.53 185.7,-121.08 192.75,-123.02 247.05,-137.93 311.48,-148.85 351.11,-154.82"/>
<polygon fill="black" stroke="black" points="350.43,-158.26 360.83,-156.26 351.45,-151.33 350.43,-158.26"/>
<text xml:space="preserve" text-anchor="middle" x="268.5" y="-148.34" font-family="Times,serif" font-size="14.00">0.307</text>
</g>
<!-- 1&#45;&gt;4 -->
<g id="edge6" class="edge">
<title>1&#45;&gt;4</title>
<path fill="none" stroke="black" d="M166.27,-93.83C174.16,-88.17 183.71,-81.68 192.75,-76.52 205.93,-68.98 221.05,-61.76 234.22,-55.89"/>
<polygon fill="black" stroke="black" points="235.6,-59.11 243.36,-51.9 232.8,-52.69 235.6,-59.11"/>
<text xml:space="preserve" text-anchor="middle" x="208.12" y="-79.72" font-family="Times,serif" font-size="14.00">0.345</text>
</g>
<!-- 5 -->
<g id="node5" class="node">
<title>5</title>
<ellipse fill="none" stroke="black" cx="389.25" cy="-71.02" rx="27" ry="18"/>
<text xml:space="preserve" text-anchor="middle" x="389.25" y="-65.97" font-family="Times,serif" font-size="14.00">5</text>
</g>
<!-- 1&#45;&gt;5 -->
<g id="edge8" class="edge">
<title>1&#45;&gt;5</title>
<path fill="none" stroke="black" d="M174.91,-108.34C212.93,-109.55 285.34,-109.17 344.25,-93.02 348.98,-91.72 353.79,-89.9 358.42,-87.86"/>
<polygon fill="black" stroke="black" points="359.94,-91.01 367.4,-83.49 356.88,-84.72 359.94,-91.01"/>
<text xml:space="preserve" text-anchor="middle" x="268.5" y="-110.96" font-family="Times,serif" font-size="14.00">0.334</text>
</g>
<!-- 3&#45;&gt;1 -->
<g id="edge2" class="edge">
<title>3&#45;&gt;1</title>
<path fill="none" stroke="black" d="M365.93,-169.6C327.29,-184.57 246.88,-208.42 192.75,-174.02 178.24,-164.8 167.49,-148.88 160.25,-134.87"/>
<polygon fill="black" stroke="black" points="163.5,-133.56 156.04,-126.04 157.18,-136.57 163.5,-133.56"/>
<text xml:space="preserve" text-anchor="middle" x="268.5" y="-194.89" font-family="Times,serif" font-size="14.00">0.144</text>
</g>
<!-- 4&#45;&gt;2 -->
<g id="edge3" class="edge">
<title>4&#45;&gt;2</title>
<path fill="none" stroke="black" d="M246.88,-30.68C228.56,-21.3 200.74,-8.7 174.75,-3.52 151.21,1.17 144.29,1.17 120.75,-3.52 99.23,-7.81 76.45,-17.19 58.85,-25.61"/>
<polygon fill="black" stroke="black" points="57.38,-22.44 49.97,-30.01 60.49,-28.71 57.38,-22.44"/>
<text xml:space="preserve" text-anchor="middle" x="147.75" y="-6.72" font-family="Times,serif" font-size="14.00">0.183</text>
</g>
<!-- 4&#45;&gt;3 -->
<g id="edge5" class="edge">
<title>4&#45;&gt;3</title>
<path fill="none" stroke="black" d="M284.54,-56.96C304.88,-77.18 341.36,-113.42 365.18,-137.1"/>
<polygon fill="black" stroke="black" points="362.7,-139.56 372.26,-144.13 367.63,-134.6 362.7,-139.56"/>
<text xml:space="preserve" text-anchor="middle" x="328.88" y="-118.26" font-family="Times,serif" font-size="14.00">0.199</text>
</g>
<!-- 4&#45;&gt;5 -->
<g id="edge9" class="edge">
<title>4&#45;&gt;5</title>
<path fill="none" stroke="black" d="M294.04,-35.39C308.94,-32.53 328.14,-30.95 344.25,-36.52 351.77,-39.12 358.99,-43.59 365.32,-48.46"/>
<polygon fill="black" stroke="black" points="362.86,-50.96 372.75,-54.76 367.38,-45.62 362.86,-50.96"/>
<text xml:space="preserve" text-anchor="middle" x="328.88" y="-39.72" font-family="Times,serif" font-size="14.00">0.289</text>
</g>
</g>
</svg>
